


 
http://www.imdb.com/title/tt1680123/




Set around a wife and husband on vacation in Morocco with the wife plotting to murder her husband with help from her lover. The plan goes terribly wrong when her lover and husband get into a terrible car accident on a remote desert road. They escape the multi-car pileup at a desert intersection and encounter the group of survivors, including a wanted smuggler, an undercover cop, a kidnapper, a baby and an unconscious Australian. They embark on a journey of deceit and revelation that culminates in a Tangiers souk. 

A couple on their honeymoon in Morocco survive a deadly car accident in the middle of the desert. 



Director:
 David Marconi 

Writer:
 David Marconi 

Stars:
 Roschdy Zem, Jaimie Alexander, Frank Grillo

Genres:
  Romance |  Thriller 

Country:
 France 

Language:
 English | French | Arabic 




Format                                   : AVI
Format/Info                              : Audio Video Interleave
File size                                : 708 MiB
Duration                                 : 1h 37mn
Overall bit rate                         : 1 019 Kbps

Video
ID                                       : 0
Format                                   : MPEG-4 Visual
Format profile                           : Simple@L3
Format settings, BVOP                    : No
Format settings, QPel                    : No
Format settings, GMC                     : No warppoints
Format settings, Matrix                  : Default (H.263)
Codec ID                                 : XVID
Codec ID/Hint                            : XviD
Duration                                 : 1h 37mn
Bit rate                                 : 878 Kbps
Width                                    : 640 pixels
Height                                   : 272 pixels
Display aspect ratio                     : 2.35:1
Frame rate                               : 25.000 fps
Color space                              : YUV
Chroma subsampling                       : 4:2:0
Bit depth                                : 8 bits
Scan type                                : Progressive
Compression mode                         : Lossy
Bits/(Pixel*Frame)                       : 0.202
Stream size                              : 610 MiB (86%)
Writing library                          : XviD 1.1.2 (UTC 2006-11-01)

Audio
ID                                       : 1
Format                                   : MPEG Audio
Format version                           : Version 1
Format profile                           : Layer 3
Mode                                     : Joint stereo
Mode extension                           : MS Stereo
Codec ID                                 : 55
Codec ID/Hint                            : MP3
Duration                                 : 1h 37mn
Source duration                          : 1h 37mn
Bit rate mode                            : Constant
Bit rate                                 : 128 Kbps
Channel(s)                               : 2 channels
Sampling rate                            : 48.0 KHz
Compression mode                         : Lossy
Stream size                              : 88.9 MiB (13%)
Alignment                                : Split accross interleaves
Interleave, duration                     : 24 ms (0.60 video frame)
Writing library                          : LAME3.98





info

 
http://addpix.net/viewer.php?file=13096680000805744741.png



poster

 
http://addpix.net/viewer.php?file=99023919710473414532.jpg



screens



    	http://addpix.net/viewer.php?file=23252171243164216725.jpg
    	http://addpix.net/viewer.php?file=61628762542796884751.jpg
    	http://addpix.net/viewer.php?file=55815137883843945926.jpg
    	http://addpix.net/viewer.php?file=68858846142315117878.jpg
    	http://addpix.net/viewer.php?file=88668003004245884798.jpg
    	http://addpix.net/viewer.php?file=02550395267186433987.jpg